<?xml version="1.0" encoding="UTF-8"?>
<svg xmlns="http://www.w3.org/2000/svg" width="135" height="40" viewBox="0 0 135 40" fill="limegreen">
  <path d="M90 23.7494V22.0735C90 21.9688 89.8952 21.7593 89.7905 21.7593H89.2667C88.9524 21.7593 88.6381 21.445 88.6381 21.0261V16.2078C88.6381 12.856 87.0667 10.3421 83.7143 10.3421C81.9333 10.3421 80.1524 11.1801 79.6286 12.5417V10.3421C79.6286 10.1326 79.4191 9.92312 79.2095 10.0279C78.8952 10.2373 75.2286 10.2374 74.9143 10.3421L74.8095 10.4468V12.437C74.8095 12.5417 74.9143 12.5417 75.0191 12.5417C75.0191 12.5417 76.1714 12.5417 76.1714 13.3797V20.9213C76.1714 21.3403 75.8571 21.6545 75.5429 21.6545H73.4476C73.1333 21.6545 72.8191 21.3403 72.8191 20.9213V10.3421C72.8191 10.1326 72.6095 9.92312 72.4 10.0279C71.981 10.2373 68.4191 10.2374 68.1048 10.3421L68 10.4468V12.437C68 12.5417 68.1048 12.5417 68.2095 12.5417C68.2095 12.5417 69.3619 12.5417 69.3619 13.3797V20.9213C69.3619 21.3403 69.0476 21.6545 68.7333 21.6545H68.2095C68.1048 21.6545 68 21.7593 68 21.9688V23.6447C68 23.7494 68.1048 23.9589 68.2095 23.9589H80.5714C80.6762 23.9589 80.781 23.8542 80.781 23.6447V21.9688C80.781 21.864 80.6762 21.6545 80.5714 21.6545H80.0476C79.7333 21.6545 79.4191 21.3403 79.4191 20.9213C79.4191 20.9213 79.4191 18.198 79.4191 16.941C79.4191 15.2651 79.7333 12.5417 82.2476 12.5417C84.7619 12.5417 85.0762 15.2651 85.0762 16.941C85.0762 17.5695 85.0762 20.9213 85.0762 20.9213C85.0762 21.3403 84.7619 21.6545 84.4476 21.6545H83.9238C83.8191 21.6545 83.7143 21.7593 83.7143 21.9688V23.6447C83.7143 23.7494 83.8191 23.9589 83.9238 23.9589H85.0762H88.4286H89.581C89.8952 24.0637 90 23.9589 90 23.7494Z" fill="limegreen"></path>
  <path d="M60.8909 9.77114C58.5343 9.77114 56.9275 12.0697 56.9275 12.0697V2.2189C56.9275 2 56.7132 2 56.499 2C55.4278 2.21891 52.4285 2.21891 52.1071 2.32836L52 2.4378V4.51742C52 4.62687 52.1071 4.62686 52.2142 4.62686C52.2142 4.62686 53.3925 4.62686 53.3925 5.50249V20.8259C53.3925 21.2637 53.0712 21.592 52.7498 21.592H52.2142C52.1071 21.592 52 21.7015 52 21.9204V23.6717C52 23.7811 52.1071 24 52.2142 24H56.3919C56.6061 24 56.8203 23.7811 56.8203 23.5622V22.796C57.8915 23.7811 59.2841 24 60.6766 24C64.1044 24 66.9966 21.3731 66.9966 16.8856C67.1038 12.398 64.64 9.77114 60.8909 9.77114ZM59.7126 21.4826C58.2129 21.4826 56.9275 20.607 56.9275 19.403C56.9275 18.7463 56.9275 17.4328 56.9275 16.3383C56.9275 13.8209 58.2129 12.0697 59.8197 12.0697C61.9621 12.0697 62.819 14.2587 62.819 17.1045C62.7119 19.2935 61.7478 21.4826 59.7126 21.4826Z" fill="limegreen"></path>
  <path d="M21.7822 0H15.1386C14.9208 0 14.8119 0.108584 14.8119 0.325779V1.95474C14.8119 2.17193 14.9208 2.28053 15.1386 2.28053H15.5743C16.0099 2.28053 16.3366 2.60632 16.3366 3.04071V9.99095H5.88119V3.04071C5.88119 2.60632 6.20792 2.28053 6.64357 2.28053H6.9703C7.18812 2.28053 7.29703 2.17193 7.29703 1.95474V0.325779C7.29703 0.108584 7.18812 0 6.9703 0H0.326736C0.108914 0 0 0.108584 0 0.325779V1.95474C0 2.17193 0.108914 2.28053 0.326736 2.28053H0.762377C1.19802 2.28053 1.52475 2.60632 1.52475 3.04071V20.9593C1.52475 21.3937 1.19802 21.7195 0.762377 21.7195H0.326736C0.108914 21.7195 0 21.828 0 22.0452V23.6742C0 23.8914 0.108914 24 0.326736 24H6.9703C7.18812 24 7.29703 23.8914 7.29703 23.6742V22.0452C7.29703 21.828 7.18812 21.7195 6.9703 21.7195H6.53465C6.09901 21.7195 5.77228 21.3937 5.77228 20.9593V12.3801H16.2277V20.9593C16.2277 21.3937 15.901 21.7195 15.4653 21.7195H15.0297C14.8119 21.7195 14.703 21.828 14.703 22.0452V23.6742C14.703 23.8914 14.8119 24 15.0297 24H21.6733C21.8911 24 22 23.8914 22 23.6742V22.0452C22 21.828 21.8911 21.7195 21.6733 21.7195H21.2376C20.802 21.7195 20.4752 21.3937 20.4752 20.9593V3.04071C20.4752 2.60632 20.802 2.28053 21.2376 2.28053H21.6733C21.8911 2.28053 22 2.17193 22 1.95474V0.325779C22 0.108584 21.8911 0 21.7822 0Z" fill="limegreen"></path>
  <path d="M37.7872 21.7772H37.0426C36.7234 21.7772 36.617 21.5655 36.617 21.248V10.6632C36.617 10.4515 36.617 10.3457 36.2979 10.3457C35.5532 10.3457 34.1702 10.2398 33.6383 10.0282C33.4255 9.92231 33.2128 10.134 33.2128 10.3457V12.5685C32.8936 11.8276 31.5106 10.3457 29.7021 10.3457C26.1915 10.3457 23 13.627 23 17.9667C23 22.3064 25.6596 24 29.2766 24C31.617 24 33.2128 22.8357 33.2128 22.8357C33.2128 22.8357 33.3192 24 34.4894 24H37.7872C37.8936 24 38 23.8942 38 23.7883V21.9889C38 21.8831 37.8936 21.7772 37.7872 21.7772ZM30.1277 21.7772C28.3192 21.7772 27.3617 19.7661 27.3617 17.5433C27.3617 15.1088 28.6383 12.6743 30.3404 12.6743C32.1489 12.6743 33.3191 13.8387 33.3191 17.2258C33.1064 18.9193 32.6809 21.7772 30.1277 21.7772Z" fill="limegreen"></path>
  <path d="M115.5 10C111.419 10 108 13.0757 108 17C108 20.9242 111.088 24 115.5 24C117.926 24 119.912 22.9394 121.235 21.4545C121.346 21.3485 121.346 21.1364 121.235 21.0303L119.25 19.8636C119.14 19.7576 119.029 19.8636 118.919 19.8636C118.588 20.2879 117.596 21.6667 115.5 21.6667C112.522 21.6667 112.522 18.2727 112.522 18.2727H122.669C122.89 18.2727 123 18.1667 123 17.9545C123 12.4394 118.699 10 115.5 10ZM112.522 15.9394C112.522 15.9394 112.522 12.5454 115.5 12.5454C118.478 12.5454 118.478 15.9394 118.478 15.9394H112.522Z" fill="limegreen"></path>
  <path d="M71.9967 6.94666C73.4458 6.1434 74.0894 4.50701 73.4341 3.29168C72.7789 2.07636 71.073 1.74231 69.6239 2.54557C68.1747 3.34883 67.5312 4.98522 68.1864 6.20054C68.8417 7.41587 70.5476 7.74992 71.9967 6.94666Z" fill="limegreen"></path>
  <path d="M50.1544 10.3431C48.8581 10.133 46.6976 10.8684 44.9692 12.5492V10.3431C44.9692 10.133 44.7531 9.92289 44.5371 10.0279C44.105 10.2381 40.4321 10.238 40.108 10.3431L40 10.4482V12.4442C40 12.5492 40.108 12.5492 40.2161 12.5492C40.2161 12.5492 41.4043 12.5492 41.4043 13.3896V20.9535C41.4043 21.3737 41.0803 21.6888 40.7562 21.6888H40.4321C40.3241 21.6888 40.2161 21.7939 40.2161 22.004V23.6849C40.2161 23.7899 40.3241 24 40.4321 24H46.1575C46.2655 24 46.3735 23.895 46.3735 23.6849V22.004C46.3735 21.8989 46.2655 21.6888 46.1575 21.6888H45.6173C45.2933 21.6888 44.9692 21.3737 44.9692 20.9535V15.9109C44.9692 13.3896 46.8056 12.5492 47.2377 12.5492C47.2377 14.02 48.318 14.9654 49.6143 14.9654C50.9106 14.9654 51.9909 13.9149 51.9909 12.6543C52.0989 11.4987 51.2347 10.6582 50.1544 10.3431Z" fill="limegreen"></path>
  <path d="M103.198 11.0067C103.511 10.7919 104.137 10.5772 104.555 11.1141C104.973 11.651 105.495 11.9732 106.121 11.9732C107.165 11.9732 108 11.1141 108 10.0403C108 9.2886 107.478 8 105.494 8C103.198 8 101.11 11.0067 100.901 11.0067C99.9615 10.5772 98.9176 10.3624 97.8736 10.3624C93.9066 10.3624 90.7747 13.4765 90.7747 17.2349C90.7747 19.7047 92.0275 21.745 94.011 23.0336C93.2802 23.3557 92.7582 24.1074 92.7582 24.9664C92.7582 25.8255 93.489 26.5772 95.3681 27.0067C101.005 28.2953 102.78 30.7651 102.78 33.2349C102.78 36.5638 100.901 37.745 98.0824 37.745C95.2637 37.745 93.3846 36.2416 93.3846 33.2349C93.3846 29.7987 95.4725 29.3691 95.0549 28.9396C94.6374 28.5101 89 28.7248 89 33.2349C89 37.4228 93.0714 40 98.1868 40C102.989 40 107.374 38.0671 107.374 33.2349C107.374 27.2215 97.5604 25.8255 96.3077 25.5034C95.3681 25.1812 95.6813 23.8926 96.4121 24.1074C96.9341 24.2148 97.456 24.3221 97.978 24.3221C101.945 24.3221 105.077 21.208 105.077 17.3423C105.077 15.5168 104.346 13.7987 103.093 12.5101C102.467 11.8658 102.989 11.2215 103.198 11.0067ZM97.978 21.8524C96.3077 21.8524 95.1593 20.2416 95.1593 17.2349C95.1593 14.2282 96.3077 12.5101 97.978 12.5101C99.6483 12.5101 100.797 14.2282 100.797 17.2349C100.797 20.2416 99.6483 21.8524 97.978 21.8524Z" fill="limegreen"></path>
  <path d="M133.288 10.3431C131.975 10.133 129.786 10.8684 128.035 12.5492V10.3431C128.035 10.133 127.816 9.92289 127.597 10.0279C127.159 10.2381 123.438 10.238 123.109 10.3431L123 10.4482V12.4442C123 12.5492 123.109 12.5492 123.219 12.5492C123.219 12.5492 124.423 12.5492 124.423 13.3896V20.9535C124.423 21.3737 124.095 21.6888 123.766 21.6888H123.219C123.109 21.6888 123 21.7939 123 22.004V23.6849C123 23.7899 123.109 24 123.219 24H129.02C129.129 24 129.239 23.895 129.239 23.6849V22.004C129.239 21.8989 129.129 21.6888 129.02 21.6888H128.473C128.144 21.6888 127.816 21.3737 127.816 20.9535V15.9109C127.816 13.3896 129.676 12.5492 130.114 12.5492C130.114 14.02 131.209 14.9654 132.522 14.9654C133.836 14.9654 134.93 13.9149 134.93 12.6543C135.258 11.4987 134.383 10.6582 133.288 10.3431Z" fill="limegreen"></path>
  <path d="M44.7778 30.7347C44.7778 29.7143 44 29 42.7778 29H40V34H41.3333V32.4694H42.1111C42.5556 32.9796 43 33.4898 43.4445 34H45C44.5556 33.4898 44.1111 32.8776 43.5556 32.3674C44.3333 32.0612 44.7778 31.449 44.7778 30.7347ZM42.5556 31.449H41.3333V29.9184H42.5556C43.2222 29.9184 43.3333 30.4286 43.3333 30.7347C43.4444 31.2449 43 31.449 42.5556 31.449Z" fill="limegreen"></path>
  <path d="M52 29H50.3333L48.25 31.0408V29H47V34H48.25V32.8776L48.9792 32.1633L50.4375 34H52L49.8125 31.2449L52 29Z" fill="limegreen"></path>
  <path d="M54 34H58V32.9796H55.2308V32.0612H57.6923V31.0408H55.2308V30.0204H58V29H54V34Z" fill="limegreen"></path>
  <path d="M61 30.0204H62.7778V34H64.2222V30.0204H66V29H61V30.0204Z" fill="limegreen"></path>
  <path d="M69 29H68V34H69V29Z" fill="limegreen"></path>
  <path d="M75.75 31.8571L73.25 29H72V34H73.25V31.1429L75.75 34H77V29H75.75V31.8571Z" fill="limegreen"></path>
  <path d="M27.5556 29L26 30.9388L24.3333 29H23V34H24.3333V30.9388L26 32.8776L27.5556 30.9388V34H29V29H27.5556Z" fill="limegreen"></path>
  <path d="M34.4138 29H33.6897L31 34H32.3448L32.7586 33.1837H35.2414L35.6552 34H37L34.4138 29ZM33.2759 32.0612L34 30.6327L34.7241 32.0612H33.2759Z" fill="limegreen"></path>
  <path d="M85 31.1H82.549V32.2H83.7255C83.5294 32.6 83.0392 32.8 82.549 32.8C81.8627 32.8 81.1765 32.2 81.1765 31.4C81.1765 30.7 81.7647 30.1 82.549 30.1C82.9412 30.1 83.2353 30.3 83.5294 30.6C83.7255 30.5 84.2157 30.2 84.5098 30C84.0196 29.4 83.3333 29 82.549 29C81.1765 29 80 30.1 80 31.5C80 32.9 81.0784 34 82.549 34C83.8235 34 84.902 33.1 85 31.9C85 31.8 85 31.7 85 31.7C85 31.6 85 31.4 85 31.3V31.1Z" fill="limegreen"></path>
</svg>
